- 
http://www.Speed.Cd
 
http://www.Speed.Cd       the fast  and The Hottest Private Tracker on the net

Please Seed back to make the speed Faster!!
 ............ NFO .............
-[URL=http://img201.imageshack.us/i/freakydeaky2012moviedvd.jpg/][IMG]http://img201.imageshack.us/img201/7897/freakydeaky2012moviedvd.jpg[/IMG][/URL]


MRFIXIT is proud to present:   Freaky Deaky 

Source:  Freaky Deaky (2012) DVD5 NTSC

[URL=http://img204.imageshack.us/i/27867621.png/][IMG]http://img204.imageshack.us/img204/2294/27867621.png[/IMG][/URL]

Complete name                            : C:Freaky Deaky-Dvdrip-H264-MRFIXIT.avi
Format                                   : AVI
Format/Info                              : Audio Video Interleave
File size                                : 625 MiB
Duration                                 : 1h 32mn
Overall bit rate                         : 939 Kbps
Writing library                          : VirtualDub build 32842/release  

[URL=http://img713.imageshack.us/i/32031619.png/][IMG]http://img713.imageshack.us/img713/512/32031619.png[/IMG][/URL]

ID                                       : 0
Format                                   : AVC
Format/Info                              : Advanced Video Codec
Format profile                           : High@L3.0
Format settings, CABAC                   : Yes
Format settings, ReFrames                : 4 frames
Codec ID                                 : H264
Duration                                 : 1h 32mn
Bit rate                                 : 800 Kbps
Width                                    : 720 pixels
Height                                   : 384 pixels
Display aspect ratio                     : 1.85:1
Frame rate                               : 29.970 fps
Color space                              : YUV
Chroma subsampling                       : 4:2:0
Bit depth                                : 8 bits
Scan type                                : Progressive
Bits/(Pixel*Frame)                       : 0.097
Stream size                              : 532 MiB (85%)
Writing library                          : x264 core 125 r2200bm 999b753
Encoding settings                        : cabac=1 / ref=3 / deblock=1:0:0 / analyse=0x3:0x113 / me=hex / subme=7 / psy=1 / psy_rd=1.00:0.00 / mixed_ref=1 / me_range=16 / chroma_me=1 / trellis=1 / 8x8dct=1 / cqm=0 / deadzone=21,11 / fast_pskip=1 / chroma_qp_offset=-2 / threads=9 / lookahead_threads=1 / sliced_threads=0 / nr=0 / decimate=1 / interlaced=0 / bluray_compat=0 / constrained_intra=0 / bframes=3 / b_pyramid=2 / b_adapt=1 / b_bias=0 / direct=1 / weightb=1 / open_gop=0 / weightp=2 / keyint=250 / keyint_min=25 / scenecut=40 / intra_refresh=0 / rc_lookahead=40 / rc=2pass / mbtree=1 / bitrate=800 / ratetol=1.0 / qcomp=0.60 / qpmin=0 / qpmax=69 / qpstep=4 / cplxblur=20.0 / qblur=0.5 / ip_ratio=1.40 / aq=1:1.00

[URL=http://img684.imageshack.us/i/14258198.png/][IMG]http://img684.imageshack.us/img684/6473/14258198.png[/IMG][/URL]

ID                                       : 1
Format                                   : MPEG Audio
Format version                           : Version 1
Format profile                           : Layer 3
Mode                                     : Joint stereo
Mode extension                           : MS Stereo
Codec ID                                 : 55
Codec ID/Hint                            : MP3
Duration                                 : 1h 32mn
Bit rate mode                            : Constant
Bit rate                                 : 128 Kbps
Channel(s)                               : 2 channels
Sampling rate                            : 48.0 KHz
Compression mode                         : Lossy
Stream size                              : 85.1 MiB (14%)
Alignment                                : Split accross interleaves
Interleave, duration                     : 33 ms (1.00 video frame)
Interleave, preload duration             : 500 ms

[URL=http://img36.imageshack.us/i/19805875.png/][IMG]http://img36.imageshack.us/img36/52/19805875.png[/IMG][/URL]
 
http://www.imdb.com/title/tt0938305/

[URL=http://img225.imageshack.us/i/39945039.png/][IMG]http://img225.imageshack.us/img225/9529/39945039.png[/IMG][/URL]

Set in 1974, a pair of '60s radicals rely on their bomb-making skills on their way to becoming capitalists.

[URL=http://img405.imageshack.us/i/70975872.png/][IMG]http://img405.imageshack.us/img405/6001/70975872.png[/IMG][/URL]

Christian Slater
Crispin Glover
Billy Burke
Michael Jai White 
Roger Bart 
Bill Duke 
Andy Dick 
Gloria Hendry 
Mark Saul 
Sabina Gadecki
Breanne Racano
Kellerina Bacon 
Rebecca Mccarthy
Anna Gurji
Tiffani Elise Edwards 

[URL=http://img819.imageshack.us/i/94723758.png/][IMG]http://img819.imageshack.us/img819/9863/94723758.png[/IMG][/URL]

[URL=http://img32.imageshack.us/i/86186438.jpg/][IMG]http://img32.imageshack.us/img32/6302/86186438.jpg[/IMG][/URL]
[URL=http://img713.imageshack.us/i/24897172.jpg/][IMG]http://img713.imageshack.us/img713/5986/24897172.jpg[/IMG][/URL]
[URL=http://img823.imageshack.us/i/84817797.jpg/][IMG]http://img823.imageshack.us/img823/645/84817797.jpg[/IMG][/URL]
[URL=http://img580.imageshack.us/i/83385114.jpg/][IMG]http://img580.imageshack.us/img580/7126/83385114.jpg[/IMG][/URL]
[URL=http://img837.imageshack.us/i/46067691.jpg/][IMG]http://img837.imageshack.us/img837/8126/46067691.jpg[/IMG][/URL]
[URL=http://img94.imageshack.us/i/67872967i.jpg/][IMG]http://img94.imageshack.us/img94/6791/67872967i.jpg[/IMG][/URL]

[URL=http://img834.imageshack.us/i/greets3.png/][IMG]http://img834.imageshack.us/img834/3478/greets3.png[/IMG][/URL]

voltage, DQ1, LEGION, PRESTiGE, 26k, RemixHD, UNiQUE, Legend-Rg, DiNGiE, Relentle$$,
Bigguy, paranoid53, HIVE-CM8, TRINITY, Rx, INSPiRAL, HOPE, tommiecook, Wayne, Seedling, Quagmire

Contact [color=red]iammrfixit@hushmail.me[/color]